Coordinates
version=1
nRows=19
nColumns=24
inDegrees=yes

Units are S.I. units (second, meters, Newtons, ...)
Angles are in degrees.

endheader
time	pelvis_tilt	pelvis_list	pelvis_rotation	pelvis_tx	pelvis_ty	pelvis_tz	hip_flexion_r	hip_adduction_r	hip_rotation_r	knee_angle_r	ankle_angle_r	subtalar_angle_r	mtp_angle_r	hip_flexion_l	hip_adduction_l	hip_rotation_l	knee_angle_l	ankle_angle_l	subtalar_angle_l	mtp_angle_l	lumbar_extension	lumbar_bending	lumbar_rotation
      3.61500000	     -3.68097571	      3.14976120	      5.94889585	     -0.28821711	     -0.03008313	     -0.17196742	     32.93254833	     -1.79161263	     -2.84764674	    -15.77415860	      2.12408551	      7.20570028	      9.47791868	    -10.73284216	      6.52638707	      1.67354414	    -23.15631864	      8.66059271	     22.83578020	      4.66765385	      1.79156074	     -6.54873964	    -10.48226402
      3.62000000	     -3.74774172	      2.81056106	      5.98510381	     -0.28026743	     -0.03051859	     -0.17147374	     32.83618268	     -1.35111223	     -2.96997004	    -16.25629652	      1.13332679	      6.57312801	     10.00525576	    -10.58139172	      5.93702978	      1.32623806	    -23.97545276	      7.06988313	     23.27365473	      8.37058443	      2.07605822	     -6.16808891	    -10.34763531
      3.62500000	     -3.86827109	      2.42508393	      6.00425325	     -0.27231040	     -0.03103457	     -0.17099408	     32.86045431	     -0.88888533	     -3.17171346	    -16.92328678	      0.53823726	      6.53086213	      9.97913313	    -10.19917135	      5.27752502	      0.78415978	    -25.29494291	      6.21732122	     24.20912937	      8.96548382	      2.41812942	     -5.74065014	    -10.23160750
      3.63000000	     -3.90249610	      2.06412926	      5.93345628	     -0.26441423	     -0.03134528	     -0.17026111	     32.78706695	     -0.34035527	     -3.03728425	    -17.50904253	     -0.63755100	      5.77441580	     10.32415503	     -9.99083566	      4.61126446	      0.17986119	    -26.09155971	      3.99366615	     24.64750246	     14.20276852	      2.64031255	     -5.33949094	     -9.97651809
      3.63500000	     -4.02130616	      1.65282261	      5.85729841	     -0.25642596	     -0.03169036	     -0.16954201	     32.83303307	      0.23989501	     -2.92239405	    -18.21322230	     -1.48741144	      5.46730640	     10.13254677	     -9.58114224	      3.87646214	     -0.48664143	    -27.19477315	      2.12421664	     25.36996540	     17.34221560	      2.97159303	     -4.89668135	     -9.78427438
      3.64000000	     -4.14281465	      1.20439489	      5.76442525	     -0.24845911	     -0.03199540	     -0.16880163	     32.89569761	      0.87244338	     -2.73606754	    -18.93575150	     -2.38840780	      5.12801667	      9.94935589	     -9.11119131	      3.09066068	     -1.13152593	    -28.35560543	      0.10568315	     26.05426575	     20.42741173	      3.29448232	     -4.41101376	     -9.57015112
      3.64500000	     -4.35468893	      0.73076273	      5.62711055	     -0.24044920	     -0.03237186	     -0.16799885	     33.06059774	      1.57492413	     -2.31873407	    -19.68211168	     -3.30780682	      4.65982241	      9.56951350	     -8.48022395	      2.28956674	     -1.75839435	    -29.64376978	     -1.94403211	     26.64562682	     22.73909111	      3.72324848	     -3.90737704	     -9.33286910
      3.65000000	     -4.52232796	      0.25264722	      5.52563012	     -0.23251665	     -0.03267440	     -0.16721991	     33.19416217	      2.25177673	     -2.02705977	    -20.47074256	     -4.07023954	      4.40754809	      9.22950023	     -7.84604324	      1.45024375	     -2.33992067	    -30.90358579	     -4.35085843	     27.16576198	     25.71020481	      4.07198967	     -3.40287061	     -9.15008058
      3.65500000	     -4.67254523	     -0.22055316	      5.41796492	     -0.22460619	     -0.03296280	     -0.16648371	     33.31050174	      2.92087286	     -1.73730677	    -21.27517959	     -4.70487104	      4.24955447	      8.93200393	     -7.18324187	      0.62435202	     -2.83331823	    -32.21664195	     -6.88282458	     27.54114533	     28.17728167	      4.39296596	     -2.89559208	     -8.96586454
      3.66000000	     -4.78280269	     -0.70200500	      5.30056193	     -0.21670867	     -0.03324153	     -0.16575207	     33.37576065	      3.59774605	     -1.48739129	    -22.07042982	     -5.19535919	      4.19311276	      8.73315049	     -6.51973943	     -0.21567205	     -3.28078353	    -33.56519548	     -9.53872543	     27.81615555	     30.31702279	      4.66723991	     -2.37643620	     -8.78195457
      3.66500000	     -4.97895289	     -1.20972025	      5.16449882	     -0.20885114	     -0.03363885	     -0.16505880	     33.51467555	      4.31326063	     -1.15707557	    -22.81641264	     -5.75229948	      3.91620215	      8.54340154	     -5.66847324	     -1.04135615	     -3.60941830	    -35.15407604	    -11.92373419	     27.97927220	     30.50069042	      5.03293772	     -1.82350393	     -8.58114654
      3.67000000	     -5.15068452	     -1.63669937	      4.99983045	     -0.20114090	     -0.03409517	     -0.16420076	     33.63262874	      4.98964893	     -0.77764784	    -23.56900734	     -6.19073716	      3.48169444	      8.41695965	     -4.79986804	     -1.80405788	     -3.99805495	    -36.70935509	    -14.60838885	     27.86592185	     31.12009297	      5.33531957	     -1.38014700	     -8.35604875
      3.67500000	     -5.21863656	     -2.14941974	      4.85319862	     -0.19334156	     -0.03439847	     -0.16360966	     33.56185332	      5.70669585	     -0.54154888	    -24.19741306	     -6.48030557	      3.24601096	      8.38221580	     -4.02198496	     -2.60187210	     -4.21721142	    -38.28437128	    -17.21721248	     27.40369073	     30.83654562	      5.55976515	     -0.79354312	     -8.11619312
      3.68000000	     -5.29045114	     -2.64139409	      4.68927935	     -0.18559826	     -0.03479816	     -0.16284695	     33.47798087	      6.43593511	     -0.31649522	    -24.79297164	     -6.65029992	      2.84642804	      8.38831699	     -3.18495756	     -3.40567921	     -4.50549455	    -39.91247313	    -19.81339613	     26.76072576	     30.28662488	      5.78124157	     -0.25930677	     -7.85929488
      3.68500000	     -5.49252721	     -3.04516606	      4.42873694	     -0.17803557	     -0.03534431	     -0.16190840	     33.52056929	      7.15791772	      0.13627107	    -25.33687844	     -6.98610902	      2.08520261	      8.53913193	     -2.16366007	     -4.07221426	     -4.75169347	    -41.59898331	    -22.28991164	     25.95236245	     29.06964386	      6.10379278	      0.17718665	     -7.51331025
      3.69000000	     -5.63174204	     -3.55585971	      4.16985476	     -0.17050168	     -0.03587987	     -0.16111772	     33.44385883	      7.94539614	      0.39967778	    -25.73653921	     -7.34085129	      1.44546201	      9.27936327	     -1.11963532	     -4.84782495	     -4.99096700	    -43.53600509	    -24.07259889	     25.10143223	     25.93787028	      6.36484089	      0.75839174	     -7.15616876
      3.69500000	     -5.68826360	     -4.03155046	      3.91911219	     -0.16306077	     -0.03629853	     -0.16026476	     33.23779517	      8.72384909	      0.67946448	    -26.10620207	     -7.46761900	      0.81477017	      9.68817336	     -0.14606138	     -5.58578534	     -5.20474839	    -45.41860932	    -25.78453230	     23.94873242	     22.89355558	      6.51452576	      1.28700032	     -6.82360926
      3.70000000	     -5.74799455	     -4.50744074	      3.65292298	     -0.15569484	     -0.03671300	     -0.15936148	     32.99584586	      9.52417633	      0.99529097	    -26.41182396	     -7.53300033	      0.14614003	     10.08542001	      0.86892578	     -6.32270213	     -5.41252334	    -47.33839448	    -27.17196951	     22.64941637	     19.55000817	      6.65743072	      1.80859944	     -6.49243725
      3.70500000	     -5.78411378	     -4.99124816	      3.38992422	     -0.14841377	     -0.03706391	     -0.15844951	     32.69024182	     10.33670240	      1.28129408	    -26.65038878	     -7.55283279	     -0.54423276	     10.42670150	      1.89340059	     -7.06187723	     -5.58197192	    -49.28282813	    -28.15746247	     21.25009162	     15.94167239	      6.76166147	      2.33561272	     -6.15781443
